<svg width="16" height="16" viewBox="0 0 16 16" fill="none" xmlns="http://www.w3.org/2000/svg">
<path fill-rule="evenodd" clip-rule="evenodd" d="M5.51593 5.69502C5.01793 5.63602 4.43796 5.54701 4.19196 5.49601C3.28396 5.30601 3.11892 4.62002 2.50592 3.90602C2.17092 3.51802 0.972964 3.41301 0.558964 3.20701C0.437964 3.14701 1.30192 2.007 1.36792 1.96C1.42992 1.683 1.55796 1.50302 1.74396 1.22502C2.10996 0.945016 2.67092 0.33402 3.15192 0.45402C3.16792 0.45802 3.16194 0.673012 3.16394 0.690012C3.17494 0.854012 3.25094 0.948016 3.29694 1.10002C3.49294 1.07202 3.60894 1.109 3.61194 1.107C3.82794 1.009 4.19194 0.742015 4.44794 0.949015C5.02494 1.41602 4.76093 1.62702 4.96393 2.20802C5.01493 2.35502 5.07392 2.82602 5.15992 2.84202C5.41692 2.89002 5.75196 3.09301 6.07996 3.26301C6.07996 3.25601 6.07996 3.24901 6.07996 3.24201C7.11996 2.50201 8.34296 2.277 9.51996 2.857C9.91596 3.053 10.1999 3.36202 10.5659 3.60102C10.8159 3.76402 11.2959 3.83301 11.4899 4.03501C11.7899 4.34701 11.4289 4.852 11.7739 5.123C12.3319 5.56 13.0329 5.12501 13.6359 5.31101C14.1499 5.46901 14.2749 6.05902 14.7289 6.29402C14.8209 6.34202 14.5119 7.00902 14.4659 7.08402C14.2649 7.40702 13.9109 7.644 13.7429 7.981C13.4829 8.501 13.577 8.871 13.046 9.27C12.686 9.54 12.177 9.54202 11.754 9.64002C11.685 9.65602 11.3389 9.735 11.3289 9.831C11.2719 10.366 11.7869 10.602 11.3569 11.133C11.1439 11.395 10.8499 11.526 10.5259 11.604C10.4909 11.613 10.1609 11.658 10.1569 11.674C10.0959 11.92 10.6299 12.094 10.3599 12.324C10.0449 12.592 10.026 12.793 9.63196 12.898C9.77996 13.533 8.86795 13.866 8.87195 13.893C8.89495 14.048 8.85894 14.532 8.89594 14.683C8.92294 14.793 8.73296 14.94 8.72596 15.047C8.71596 15.212 8.63795 15.441 8.56995 15.407C8.09795 15.171 7.50697 14.996 7.17597 14.556C6.57197 13.751 6.80396 12.758 7.10596 12.027C6.86596 10.596 7.44892 10.505 7.44892 9.60999C7.44892 9.217 7.64794 8.80801 7.40894 8.45201C7.19294 8.13101 7.06393 7.95699 6.68793 7.97199C6.36593 7.98599 6.14992 8.15502 5.90192 7.89002C5.39692 7.35202 5.74894 6.753 5.63794 6.124C5.61194 5.977 5.56193 5.83602 5.51593 5.69502ZM7.73694 14.925L7.73395 14.943L7.73993 14.917L7.73694 14.925ZM6.47797 5.42002C6.48297 5.43602 6.48792 5.451 6.49292 5.464C6.54492 5.623 6.59293 5.78502 6.62293 5.95002C6.67093 6.22402 6.66596 6.49502 6.64496 6.76002C6.63996 6.83202 6.63196 6.90402 6.62696 6.97502L6.64692 6.973C7.44492 6.941 7.78096 7.21302 8.23896 7.89402C8.45996 8.22302 8.53494 8.567 8.52594 8.925C8.52094 9.149 8.44892 9.383 8.44892 9.60999C8.44892 10.022 8.36995 10.324 8.26795 10.602C8.15595 10.904 7.97192 11.148 8.09192 11.862C8.12292 12.046 8.10197 12.236 8.02997 12.409C7.86697 12.804 7.65995 13.325 7.87195 13.781C7.88895 13.565 7.98396 13.273 8.33796 13.045L8.63294 12.864C8.64594 12.475 8.88695 12.121 9.25495 11.972C9.18795 11.779 9.14995 11.581 9.18695 11.431C9.21995 11.298 9.32997 10.895 9.84797 10.721C9.91197 10.699 10.2339 10.641 10.3179 10.626C10.3679 10.615 10.4169 10.604 10.4619 10.585C10.3919 10.357 10.306 10.001 10.335 9.72502C10.361 9.48102 10.4759 9.19002 10.7819 8.96702C10.9719 8.82902 11.419 8.69102 11.53 8.66502C11.716 8.62202 11.916 8.59501 12.116 8.56001C12.231 8.54001 12.3539 8.53901 12.4459 8.47001C12.5889 8.36201 12.5849 8.243 12.6209 8.123C12.6769 7.941 12.742 7.74701 12.848 7.53401C12.956 7.31801 13.1059 7.122 13.2739 6.938C13.3769 6.825 13.497 6.72401 13.585 6.60301L13.306 6.25801C13.228 6.24601 13.1449 6.26801 13.0629 6.27601C12.8849 6.29501 12.7059 6.31801 12.5309 6.32401C12.0459 6.34001 11.5829 6.24401 11.1559 5.90901C10.8339 5.65601 10.685 5.34702 10.632 5.00202C10.621 4.92802 10.617 4.81702 10.616 4.71202C10.416 4.63402 10.148 4.522 10.02 4.438C9.68796 4.222 9.43697 3.93101 9.07697 3.75401C8.36197 3.40101 7.62397 3.49502 6.96497 3.86302L6.90094 4.04902C6.80194 4.31502 6.65092 4.634 6.53992 4.887C6.52692 5.085 6.50997 5.27102 6.47797 5.42002Z" fill="#E56934"/>
</svg>
