<svg width="16" height="6" viewBox="0 0 16 6" fill="none" xmlns="http://www.w3.org/2000/svg">
<path fill-rule="evenodd" clip-rule="evenodd" d="M3.20984 4.2646C2.36876 5.29242 0.842793 6.46902 0.549539 5.39773C0.256285 4.32621 0.823449 3.66472 2.40912 1.81469C3.99503 -0.0353403 7.85294 -0.0788027 8.63551 0.237376C9.41808 0.553555 7.51599 2.01959 12.0249 1.46102C14.6004 0.31451 15.4546 4.64167 15.4451 4.83129C15.4405 4.92012 13.9731 4.53899 13.2514 4.81051C12.434 5.11833 12.9211 6.03654 11.7596 5.76573C10.5944 5.49421 9.86273 4.7083 8.84351 4.96072C7.94942 5.18233 7.55802 5.29887 6.87408 5.66066C5.4102 6.43439 5.29605 4.7563 4.6582 4.38424C4.02034 4.01218 3.41187 4.01767 3.20984 4.2646ZM7.88088 1.08538C7.91002 1.32824 7.98763 1.56323 8.13784 1.78126C8.32506 2.05302 8.641 2.3446 9.29414 2.48764C9.80661 2.60012 10.6759 2.63093 12.1472 2.44848C12.2446 2.43654 12.3399 2.41003 12.4294 2.37015C13.1313 2.05779 13.5432 2.60394 13.8346 3.12812C13.9399 3.31797 14.0325 3.53027 14.1116 3.74066C13.6741 3.7292 13.2258 3.75714 12.9008 3.87941C12.5517 4.01099 12.3172 4.19941 12.1402 4.4043C12.0569 4.50126 11.9671 4.64645 11.8954 4.77397C11.2832 4.61302 10.801 4.29899 10.3155 4.12203C9.76864 3.92263 9.22034 3.84239 8.60423 3.99499C7.60673 4.24215 7.17211 4.37756 6.40888 4.7809C6.36112 4.80621 6.3007 4.82938 6.25533 4.84538C6.19205 4.75654 6.06285 4.5717 5.99384 4.45708C5.75073 4.05302 5.47491 3.70866 5.15969 3.52478C4.44446 3.10759 3.74118 3.03833 3.27909 3.13911C2.90345 3.22102 2.62405 3.4092 2.43993 3.63439C2.20184 3.9255 1.89951 4.23212 1.59288 4.47427C1.64685 4.368 1.71826 4.25624 1.80423 4.13135C2.10799 3.69075 2.55981 3.168 3.1647 2.46233C3.81402 1.70484 4.94906 1.36215 5.98142 1.19618C6.72864 1.07606 7.43217 1.04359 7.88088 1.08538Z" fill="#E56934"/>
</svg>
