<svg width="16" height="16" viewBox="0 0 16 16" fill="none" xmlns="http://www.w3.org/2000/svg">
<path fill-rule="evenodd" clip-rule="evenodd" d="M13.33 13.4155C13.2233 13.4155 13.2233 13.5221 13.1167 13.5755H12.85C12.7593 13.6203 12.6601 13.6373 12.5588 13.6373C12.4201 13.6373 12.2793 13.6064 12.1566 13.5755C11.9433 13.5221 11.73 13.4155 11.5167 13.4155H11.41C11.3567 13.4688 11.3566 13.5221 11.3566 13.5755C11.4633 13.8421 11.57 14.1088 11.73 14.3755C11.9433 14.8021 12.1567 15.1755 12.5833 15.4955C12.6367 15.5488 12.69 15.5488 12.7434 15.5488C12.85 15.5488 13.01 15.4955 13.0633 15.4421C13.2233 15.2288 13.2233 14.9621 13.33 14.6955C13.3833 14.6421 13.3833 14.5888 13.4366 14.4821C13.49 14.3221 13.49 14.2155 13.49 14.0555V13.6821C13.49 13.5755 13.4367 13.4155 13.33 13.4155ZM9.63828 9.6H9.76197C9.72997 9.88694 9.59131 10.1643 9.39505 10.3573C9.35771 10.3936 9.35771 10.4309 9.32037 10.4672C9.17104 10.5771 9.13372 10.8352 9.13372 10.9451C9.32038 10.9451 9.50704 10.9088 9.65637 10.8352C9.77904 10.7445 9.90174 10.6784 10.0244 10.6784C10.0511 10.6784 10.0777 10.6816 10.1033 10.688C10.1406 10.688 10.178 10.7243 10.2154 10.7616V10.9088C10.2154 11.056 10.4767 11.2395 10.5514 11.3867C10.7007 11.6075 10.6633 11.8645 10.8873 12.048C11.074 12.1952 11.298 12.2315 11.522 12.3051C11.5967 12.3051 11.6713 12.3413 11.7833 12.3413C11.9177 12.3413 12.1599 12.3477 12.4127 12.3477C12.7935 12.3477 13.201 12.3349 13.313 12.2688C13.4623 12.1952 13.537 12.0853 13.649 11.9744C13.761 11.9008 13.8729 11.5328 14.0223 11.5328C14.1012 11.5584 14.1802 11.5851 14.2602 11.5851C14.2932 11.5851 14.3252 11.5808 14.3583 11.5701C14.4329 11.4965 14.4702 11.3867 14.4702 11.2757C14.499 11.056 14.4436 10.8981 14.4447 10.7253L14.5577 10.6667L14.7828 9.9904C14.8041 9.95413 14.8244 9.91679 14.8436 9.87946C14.9556 9.65866 15.0676 9.43787 15.1796 9.21813C15.3663 8.92373 15.4036 8.59307 15.5156 8.29867C15.6266 8.02667 15.6372 7.72799 15.6148 7.49546L15.6244 7.46667L15.6105 7.4528C15.586 7.23627 15.5338 7.08587 15.5156 7.08587C15.4783 6.86507 15.4036 6.6816 15.2543 6.49813C15.105 6.24106 14.8809 6.13013 14.8062 5.79946C14.8062 5.65226 14.8063 5.43146 14.657 5.35786C14.6314 5.34933 14.6047 5.3472 14.5769 5.3472C14.5268 5.3472 14.4756 5.35573 14.4297 5.35573C14.3871 5.35573 14.3497 5.34827 14.322 5.3216C14.2473 5.248 14.2474 5.13813 14.21 5.0272C14.21 4.99093 14.1727 4.9536 14.1353 4.91734C13.874 4.66027 13.762 4.36587 13.426 4.18241C13.314 4.14614 13.202 4.07253 13.1273 3.99893C12.7913 3.70453 12.6793 3.0432 12.6047 2.63893C12.6047 2.56533 12.53 2.19733 12.418 2.19733C12.418 2.16107 12.3807 2.12374 12.3434 2.08747C12.3199 2.07147 12.2942 2.06613 12.2676 2.06613C12.1961 2.06613 12.1172 2.10881 12.0447 2.10881C12.018 2.10881 11.9935 2.10347 11.9689 2.08747C11.9316 2.0512 11.8943 2.01387 11.8943 1.94027C11.8196 1.64587 11.7449 1.35254 11.6329 1.0208C11.5977 0.909868 11.523 0.689063 11.4484 0.615463C11.2244 0.983463 11.2617 1.53494 11.2244 1.97547C11.1871 2.41707 11.1497 3.0784 10.851 3.40907C10.8137 3.44533 10.7764 3.48266 10.7391 3.51893C10.6932 3.53386 10.6463 3.54347 10.6004 3.54347C10.5353 3.54347 10.4692 3.52533 10.4042 3.48267C10.3295 3.40907 10.2174 3.33547 10.1428 3.26187C9.76943 2.96853 9.21055 2.67414 8.94921 2.26987C8.91188 2.23361 9.06123 2.23361 9.09856 2.19627C9.17323 2.16001 9.17323 2.01281 9.09856 1.97547C9.06123 1.97547 8.98652 1.93921 8.98652 1.90187C8.98652 1.82827 9.0239 1.79201 9.09856 1.75467C9.21056 1.71841 9.32253 1.71841 9.39719 1.68107C9.5092 1.60747 9.54651 1.49761 9.50917 1.42401C9.47184 1.38774 9.39719 1.35041 9.32252 1.35041C9.02385 1.31414 8.61322 1.35041 8.31562 1.27681C8.11082 1.17654 7.90705 1.01546 7.70331 1.01546C7.68305 1.01546 7.66388 1.01653 7.64361 1.01973C7.60628 1.01973 7.56894 1.01974 7.56894 1.05601C7.53161 1.09227 7.60627 1.16587 7.56894 1.23947C7.55401 1.26827 7.52947 1.28 7.4996 1.28C7.4516 1.28 7.39078 1.24907 7.34492 1.20321C7.31292 1.13921 7.22437 1.04854 7.15396 1.04854C7.14223 1.04854 7.1316 1.05067 7.122 1.05601C7.01 1.05601 7.01002 1.16587 7.01002 1.27681C7.01002 1.35041 7.00998 1.53387 6.89798 1.53387C6.48731 1.71734 6.37531 2.1952 6.56197 2.416C6.53317 2.42347 6.5065 2.4256 6.47877 2.4256C6.17584 2.4256 5.89637 2.08321 5.55397 2.04907C5.32997 2.04907 5.10597 2.15894 4.95663 2.30614C4.7337 2.49067 4.6964 2.67414 4.54706 2.8576C4.39773 3.04107 4.39771 3.0784 4.32304 3.11467C4.31557 3.1168 4.30815 3.11787 4.30175 3.11787C4.20255 3.11787 4.13962 2.88853 4.17376 2.82026C4.15669 2.80426 4.13639 2.79787 4.11399 2.79787C4.03719 2.79787 3.94123 2.88321 3.91243 2.96854C3.91243 3.04214 3.87509 3.11574 3.83775 3.18934C3.76309 3.41014 3.61372 3.77707 3.46438 3.92427C3.24038 4.14507 2.94171 4.21867 2.68144 4.29227C2.12251 4.47574 1.71189 4.65919 1.22656 4.91626C1.07722 4.98986 0.965184 5.06347 0.853184 5.17334C0.629184 5.43041 0.666509 5.79841 0.778509 6.09281C0.815843 6.20267 0.85322 6.31361 0.890553 6.46081C0.927887 6.60801 0.890546 6.71787 0.815879 6.79147C0.591879 7.01227 0.778509 7.26934 0.778509 7.26934C1.26384 8.15147 1.2265 8.85013 1.03984 9.9168C1.01744 9.90506 0.99187 9.89974 0.96627 9.89974C0.827603 9.89974 0.672901 10.0555 0.703835 10.2101C0.703835 10.3573 0.89054 10.5045 1.07721 10.5408H1.26386C1.74919 10.5408 2.30811 10.1728 2.75611 10.0629C2.98011 9.95307 3.16678 9.87947 3.35344 9.84214C3.42811 9.83041 3.5028 9.82614 3.57747 9.82614C3.7268 9.82614 3.87612 9.84214 4.02545 9.84214C4.24945 9.84214 4.51078 9.76853 4.62278 9.58506C4.66011 9.51146 4.69749 9.43786 4.73482 9.4016C4.80949 9.328 4.95883 9.29173 5.07083 9.2544C5.18283 9.23413 5.29051 9.22774 5.39505 9.22774C5.56571 9.22774 5.72896 9.24374 5.89856 9.24374C6.00416 9.24374 6.11186 9.23734 6.22493 9.21708C6.48626 9.14347 6.7476 9.1072 7.00787 9.1072C7.67987 9.1072 8.35077 9.36427 8.6121 9.98934C8.64944 10.0629 8.68679 10.1728 8.76145 10.2101C8.78812 10.2165 8.81264 10.2197 8.83717 10.2197C8.95024 10.2197 9.04198 10.1536 9.13372 10.0629C9.31292 9.88694 9.46868 9.7568 9.63828 9.6Z" fill="#E56934"/>
</svg>
