<svg width="16" height="16" viewBox="0 0 16 16" fill="none" xmlns="http://www.w3.org/2000/svg">
<path fill-rule="evenodd" clip-rule="evenodd" d="M5.48114 5.623C5.00014 5.565 4.46114 5.48102 4.22614 5.43202C3.31814 5.24302 3.1531 4.556 2.5401 3.843C2.2061 3.454 1.00714 3.34902 0.593143 3.14402C0.472143 3.08402 1.3361 1.94401 1.4021 1.89601C1.4641 1.61901 1.59314 1.44 1.77814 1.162C2.14514 0.880997 2.7061 0.270025 3.1861 0.390025C3.2021 0.394025 3.19712 0.609024 3.19812 0.627024C3.21012 0.790024 3.28512 0.884021 3.33112 1.03602C3.52712 1.00802 3.64312 1.04502 3.64612 1.04402C3.86212 0.946016 4.22612 0.67802 4.48212 0.88502C5.05912 1.35302 4.79511 1.564 4.99811 2.145C5.04911 2.291 5.1081 2.763 5.1941 2.779C5.4361 2.824 5.7451 3.005 6.0531 3.167C7.0911 2.431 8.31211 2.209 9.48511 2.788C9.88211 2.983 10.1661 3.29202 10.5321 3.53102C10.7821 3.69402 11.2621 3.76401 11.4561 3.96501C11.7551 4.27801 11.3951 4.78202 11.7401 5.05302C12.2971 5.49102 12.9991 5.05601 13.6011 5.24101C14.1161 5.39901 14.2411 5.98902 14.6951 6.22502C14.7871 6.27202 14.4781 6.94002 14.4321 7.01402C14.2301 7.33702 13.8771 7.574 13.7081 7.912C13.4491 8.432 13.5431 8.80202 13.0121 9.20002C12.6522 9.47002 12.1431 9.47302 11.7201 9.57002C11.6501 9.58602 11.3051 9.666 11.2951 9.76099C11.2381 10.296 11.7521 10.532 11.3221 11.063C11.1101 11.325 10.8151 11.457 10.4921 11.535C10.4571 11.543 10.1271 11.588 10.1231 11.604C10.0611 11.85 10.5951 12.024 10.3261 12.254C10.0111 12.522 9.99115 12.724 9.59815 12.828C9.74515 13.463 8.8331 13.797 8.8371 13.824C8.8601 13.978 8.82513 14.462 8.86213 14.613C8.88913 14.724 8.69914 14.87 8.69214 14.978C8.68214 15.142 8.60414 15.371 8.53614 15.337C8.06414 15.101 7.47315 14.926 7.14215 14.486C6.53815 13.681 6.77015 12.688 7.07215 11.958C6.83115 10.527 7.4141 10.436 7.4151 9.54002C7.4151 9.14702 7.61413 8.738 7.37513 8.383C7.15913 8.062 7.02914 7.88702 6.65314 7.90302C6.33214 7.91602 6.11513 8.08502 5.86713 7.82102C5.36213 7.28202 5.71513 6.683 5.60413 6.054C5.57813 5.907 5.52714 5.765 5.48114 5.623ZM5.58612 4.44102C5.55812 4.50502 5.53212 4.566 5.50812 4.623C5.09012 4.569 4.63316 4.49601 4.43116 4.45301C4.18016 4.40101 4.07112 4.24102 3.94812 4.07102C3.75512 3.80302 3.5641 3.50002 3.2981 3.19102C3.1081 2.96902 2.79013 2.76202 2.38813 2.61802C2.31613 2.59202 2.24014 2.56901 2.16114 2.54701C2.26714 2.42401 2.34212 2.27601 2.37812 2.11601C2.40012 2.01701 2.44612 1.94601 2.50312 1.86701L2.64014 1.75901C2.85614 1.96601 3.16112 2.07101 3.47412 2.02601C3.45012 2.03001 3.4281 2.02 3.4281 2.02C3.4281 2.02 3.74616 1.99199 3.93116 1.97199L3.93311 1.98301C3.95311 2.12301 3.98615 2.276 4.04615 2.451C4.05415 2.49 4.13213 2.85702 4.18213 3.00102C4.24313 3.17802 4.32611 3.30902 4.39411 3.39301C4.58411 3.62601 4.80915 3.724 5.01215 3.762C5.18815 3.795 5.40315 3.943 5.62415 4.068C5.61015 4.188 5.59712 4.31602 5.58612 4.44102Z" fill="#E56934"/>
</svg>
