<svg width="16" height="16" viewBox="0 0 16 16" fill="none" xmlns="http://www.w3.org/2000/svg">
<path d="M5.89062 1C5.38281 1.03516 4.91016 1.07031 4.44141 1.21094C4.19141 1.30078 3.88672 1.46875 3.60156 1.46875C3.55469 1.46875 3.50781 1.46875 3.46094 1.45703C3.35547 1.42188 3.28125 1.35156 3.17188 1.35156C3.06641 1.35156 2.95703 1.38672 2.92188 1.45703C2.88281 1.52734 2.92188 1.5625 2.92188 1.63281C2.88281 1.91406 2.44922 1.98438 2.375 2.23047C2.33984 2.37109 2.375 2.54688 2.33984 2.6875C2.26953 2.93359 2.01172 3.03906 1.83203 3.14453C1.50781 3.35547 1.25391 3.60156 1.07031 3.95312C1.03516 4.01953 1 4.09375 1 4.16406C1 4.30469 1.21484 4.44531 1.28906 4.54688C1.43359 4.72656 1.39844 4.96875 1.32812 5.17969C1.25391 5.39453 1.10938 5.56641 1.03516 5.74219C1 5.8125 1 5.88672 1 5.92188C1.03516 5.95312 1.07422 5.98828 1.10938 6.02344C1.43359 6.26953 2.25391 6.71094 2.4375 6.81641C2.59375 6.90625 2.77734 6.99609 2.9375 7C3 7 5 7 5.5 7C5.5 7 6 7 5.875 7.13281C6.01953 7.23828 6.14062 7.81641 6.14062 7.95703C6.14062 8.09766 6.07031 8.20312 6.10547 8.30859C6.14062 8.69531 5.75781 8.90625 6.00781 9.22266C6.26562 9.53906 6.40625 9.85156 6.40625 10.2773C6.37109 10.6992 6.04688 11.0508 6.04688 11.4688C6.04688 11.9258 6.58984 12.2773 6.69531 12.6992C6.73438 12.8398 6.73438 13.0156 6.77344 13.1562C6.84375 13.4727 7.41016 13.7539 7.59375 14.0352C7.66406 14.1406 7.77344 14.2109 7.80859 14.3516V14.5625C7.80859 14.7383 7.95313 14.9141 8.13281 14.9844C8.16797 14.9961 8.20313 15 8.23828 15C8.32813 15 8.42969 14.9727 8.53125 14.9492C8.92969 14.9141 9.65625 14.7773 9.90625 14.4219C10.0664 14.2031 10.1602 13.9336 10.3438 13.7539C10.4492 13.6523 10.5586 13.543 10.5234 13.4062C10.4883 13.332 10.4492 13.2969 10.4492 13.2656C10.4492 13.1914 10.5977 13.1562 10.668 13.1562H10.8867C11.0664 13.1211 11.1367 12.9102 11.1016 12.7695C11.0664 12.5977 10.8828 12.4922 10.8125 12.3125C10.7734 12.2812 10.7773 12.2422 10.7773 12.207C10.7773 12.0664 11.0273 11.8203 11.207 11.7188C11.4258 11.6133 11.6797 11.5078 11.7852 11.2969C11.8594 11.1211 11.8594 10.9453 11.7852 10.7656C11.7148 10.4141 11.5703 10.0977 11.5312 9.75C11.4609 9.39844 11.6797 9.04688 11.8594 8.73047C12.0039 8.51953 12.2227 8.34375 12.4375 8.20312C13.168 7.67578 13.8906 6.87891 14 6C13.7461 6.21094 13.3125 6.27344 12.9492 6.30469C12.8398 6.30469 12.7344 6.30469 12.6602 6.27344C12.5859 6.23828 12.5156 6.16406 12.4805 6.09375C12.2617 5.85156 12.1523 5.49609 11.9023 5.28906C11.7539 5.17969 11.6094 5.11328 11.5 4.96875C11.3555 4.82812 11.2852 4.62109 11.2148 4.40625C10.9961 3.80859 10.9961 3.31641 10.7383 2.71875C10.668 2.58203 10.5977 2.40625 10.4531 2.40625H10.1992C10.1523 2.41016 10.1055 2.41406 10.0625 2.41406C9.60547 2.41406 9.14844 2.11719 8.6875 2.02344C8.64453 2.00781 8.59375 2 8.54688 2C8.47656 2 8.40625 2.01953 8.36328 2.05859C8.25391 2.16406 8.34766 2.33594 8.24219 2.4375C8.19531 2.48047 8.12891 2.5 8.0625 2.5C8.01172 2.5 7.96094 2.48828 7.91406 2.47656C7.80469 2.44141 7.69922 2.36719 7.59375 2.29688C7.23047 2.05469 6.50781 1.94531 6.14453 1.70312C6.21875 1.59766 6.25391 1.49219 6.28906 1.38281C6.32422 1.28125 6.25 1.10547 6.14062 1.03516C6.07031 1 5.96094 1 5.89062 1ZM4.96094 2.125L5.57031 2.54297C5.875 2.74609 6.23438 2.86328 6.55469 2.96875C6.71094 3.01953 6.95312 3.09375 7.02344 3.14062L7.05469 3.16406L7.06641 3.17188C7.19531 3.25391 7.375 3.37109 7.60156 3.44141C7.75 3.48828 7.90625 3.51562 8.0625 3.51562C8.39844 3.51562 8.71094 3.39453 8.94141 3.17188C9.21484 3.27734 9.54297 3.39844 9.91406 3.42188C9.94922 3.55859 9.98047 3.69922 10.0156 3.84766C10.0703 4.11328 10.1367 4.41797 10.25 4.73438C10.3398 4.99609 10.4609 5.34375 10.7422 5.64844C10.9141 5.84766 11.0977 5.96875 11.2227 6.05469L11.2539 6.07422C11.2812 6.11328 11.332 6.19531 11.3633 6.25391C11.4414 6.38281 11.5312 6.53516 11.6562 6.6875C11.7773 6.875 11.9492 7.03906 12.1445 7.14844C12.0547 7.22266 11.9648 7.29688 11.8672 7.36719C11.5039 7.60547 11.2266 7.86719 11.0273 8.15625L11.0039 8.1875L10.9844 8.22656L10.957 8.27344C10.7383 8.64844 10.4141 9.21094 10.5312 9.89844C10.5664 10.1836 10.6406 10.4297 10.707 10.6445C10.7227 10.6992 10.7422 10.7539 10.7578 10.8125L10.7344 10.8203L10.7031 10.8438C10.6055 10.8984 9.76562 11.4102 9.76562 12.2109C9.76562 12.3047 9.77344 12.3945 9.78906 12.4727C9.57422 12.6719 9.44141 12.9492 9.4375 13.2578C9.33203 13.3984 9.25391 13.5352 9.1875 13.6562C9.16797 13.6953 9.14453 13.7383 9.11719 13.7812C9.04688 13.8164 8.90234 13.8633 8.72656 13.9023C8.63281 13.6875 8.50391 13.5391 8.41406 13.4414C8.25781 13.2148 8.05469 13.0469 7.87109 12.8984C7.83203 12.8672 7.78125 12.8242 7.74219 12.7891C7.72656 12.6719 7.70703 12.5547 7.67969 12.4492C7.58203 12.0625 7.36719 11.7812 7.19531 11.5547C7.16016 11.5156 7.12109 11.4609 7.08594 11.4141C7.10938 11.3633 7.13281 11.3086 7.15625 11.2617C7.25391 11.0391 7.39062 10.7344 7.42188 10.3633L7.42578 10.3242V10.2812C7.42578 9.78125 7.29688 9.33594 7.03125 8.90625C7.08594 8.74609 7.13672 8.53125 7.125 8.28125C7.14062 8.19922 7.15625 8.08984 7.15625 7.95703C7.15625 7.94922 7.13672 7.3125 6.86719 6.79297C6.85547 6.75391 6.83984 6.71484 6.82422 6.67969C6.625 6.21875 6.17969 5.98438 5.5 5.98438H5.35156C4.76562 5.98438 3.36328 5.98438 3.02344 5.98438C3 5.97266 2.97266 5.95312 2.94531 5.9375L2.74219 5.82422C2.62891 5.76172 2.45312 5.66016 2.26953 5.55469C2.27734 5.54297 2.28125 5.52734 2.28516 5.51172C2.50781 4.87109 2.37891 4.40625 2.21875 4.11719C2.25391 4.08203 2.29688 4.05078 2.34375 4.02344L2.40234 3.98438C2.64062 3.85547 3.13281 3.58594 3.32031 2.9375C3.34375 2.84766 3.35547 2.76562 3.36328 2.6875C3.43359 2.63281 3.50781 2.56641 3.58203 2.48438H3.59766C4.01562 2.48438 4.37109 2.33594 4.63281 2.22656C4.67969 2.20703 4.72266 2.19141 4.76172 2.17578C4.82813 2.15625 4.89453 2.14062 4.96094 2.125ZM13.875 10C13.7773 10.2148 13.6406 10.4648 13.4766 10.5703C13.3438 10.6406 13.1758 10.7148 13.1094 10.8555C13.0117 11.0352 13.1094 11.25 13.0781 11.4258C13.0781 11.5 13.0469 11.5703 13.0156 11.6406C12.9805 11.8203 13.0117 12.0352 13.0781 12.2148C13.1094 12.3203 13.1758 12.4648 13.2773 12.5C13.3438 12.5 13.4453 12.4609 13.5117 12.3906C13.5742 12.3203 13.6406 12.1758 13.6758 12.0703C13.7109 11.9648 13.707 11.8555 13.707 11.75C13.7422 11.4258 13.9062 11.1055 13.9727 10.7812C14.0078 10.5664 14.0078 10.3555 13.9727 10.1406C13.9414 10.0703 13.9102 10 13.875 10Z" fill="#E56934"/>
<path d="M11.6667 5.33333H2L3 6.33333L6.66667 6.66666L7 8.99999L6.66667 11L8.33333 14H9.66667L11.3333 10.6667V8.66666L12.6667 7.33333L11.6667 5.33333Z" fill="#E56934"/>
</svg>
